# xmcd
#
# Track frame offsets:
#	150
#	13360
#	25410
#	37177
#	49545
#	61265
#	73510
#	86435
#	100157
#	113382
#	126240
#	139562
#	152762
#	165640
#	179052
#	191230
#	203827
#	218430
#	232352
#	246450
#	261297
#	275272
#	288037
#	301780
#	313792
#	326540
#	339270
#
# Disc length: 4707 seconds
#
# Revision: 2
# Processed by: cddbd v1.4b41PL2 Copyright (c) Steve Scherf et al.
# Submitted via: CDmax 1.7.6
#
DISCID=8912611b
DTITLE=Jimmie Davis - Nobody's Darlin' But Mine, Volume #5
DYEAR=1900
DGENRE=
TTITLE0=That's Why I'm Nobody's Darling
TTITLE1=Do You Ever Think of Me?
TTITLE2=Prairie of Love
TTITLE3=Sweet Lorene
TTITLE4=Just Forgive and Forget
TTITLE5=Pal of Long Ago
TTITLE6=If I Ever Cry You'll Never Know
TTITLE7=Sweetheart of West Texas (Davis/Dodd) -
TTITLE8=Ten Tiny Toes
TTITLE9=I Wonder Where You Are
TTITLE10=In the West Where Life Is Free
TTITLE11=You'll Be Coming Back Some Day
TTITLE12=Hard Hearted Mama
TTITLE13=Jimmie Travelin' Blues
TTITLE14=I Wonder Who's Kissing Her Now
TTITLE15=Pi-Rootin' Around
TTITLE16=High Geared Daddy
TTITLE17=Honkey Tonk Blues
TTITLE18=Nobody's Darlin But Mine
TTITLE19=One,Two,Three,Four
TTITLE20=Have You Ever Been in Heaven?
TTITLE21=Greatest Mistake in My Life
TTITLE22=(Sweetheart) Please Be True to Me
TTITLE23=By the Grave of Nobody's Darlin'
TTITLE24=Shackles and Chains
TTITLE25=Call Me Back Pal O'Mine
TTITLE26=Just a Girl That Men Forget
EXTD=
EXTT0=
EXTT1=
EXTT2=
EXTT3=
EXTT4=
EXTT5=
EXTT6=
EXTT7=
EXTT8=
EXTT9=
EXTT10=
EXTT11=
EXTT12=
EXTT13=
EXTT14=
EXTT15=
EXTT16=
EXTT17=
EXTT18=
EXTT19=
EXTT20=
EXTT21=
EXTT22=
EXTT23=
EXTT24=
EXTT25=
EXTT26=
PLAYORDER=
